# xmcd CD database file
#
# Track frame offsets:
#	150
#	11889
#	21423
#	36954
#	48298
#	63781
#	73030
#	90017
#	100491
#
# Disc length: 1500 seconds
#
# Revision: 0
# Processed by: cddbd v1.5.1PL0 Copyright (c) Steve Scherf et al.
# Submitted via: CDex 1.51
#
DISCID=6e05da09
DTITLE=Grady Musick - White Boy Blues
DYEAR=2004
DGENRE=Blues
TTITLE0=Trouble Blues
TTITLE1=Love that Woman
TTITLE2=One of These Days
TTITLE3=Catfish Blues
TTITLE4=A Good Woman
TTITLE5=Walkin' Blues
TTITLE6=Love in Vain
TTITLE7=Sweet Home Chicago
TTITLE8=Can't be Satisfied
EXTD=YEAR: 2004
EXTT0=
EXTT1=
EXTT2=
EXTT3=
EXTT4=
EXTT5=
EXTT6=
EXTT7=
EXTT8=
PLAYORDER=
